<?xml version="1.0" encoding="UTF-8"?>
<svg xmlns="http://www.w3.org/2000/svg" width="18" height="18" viewBox="0 0 18 18" role="img" aria-label="Hot Corner Toggle menu bar icon">
  <g fill="none" stroke="#000000" stroke-width="1.8" stroke-linecap="round" stroke-linejoin="round">
    <path d="M7 2.9H4.5A1.6 1.6 0 0 0 2.9 4.5V7"/>
    <path d="M11 2.9h2.5a1.6 1.6 0 0 1 1.6 1.6V7"/>
    <path d="M7 15.1H4.5a1.6 1.6 0 0 1-1.6-1.6V11"/>
    <path d="M11 15.1h2.5a1.6 1.6 0 0 0 1.6-1.6V11"/>
  </g>
  <path d="M7.1 7.1h3.8a1.9 1.9 0 0 1 0 3.8H7.1a1.9 1.9 0 0 1 0-3.8Z" fill="none" stroke="#000000" stroke-width="1.4"/>
  <circle cx="10.8" cy="9" r="1.15" fill="#000000"/>
</svg>
